<?xml version="1.0" encoding="UTF-8" standalone="no"?>
<!DOCTYPE svg PUBLIC "-//W3C//DTD SVG 1.1//EN" "http://www.w3.org/Graphics/SVG/1.1/DTD/svg11.dtd">
<svg xmlns:dc="http://purl.org/dc/elements/1.1/" xmlns:xl="http://www.w3.org/1999/xlink" version="1.1" xmlns="http://www.w3.org/2000/svg" viewBox="426.3345 181.82324 44.53661 51.979686" width="44.53661" height="51.979686">
  <defs/>
  <metadata> Produced by OmniGraffle 7.8.1 
    <dc:date>2018-04-07 10:56:10 +0000</dc:date>
  </metadata>
  <g id="Work_II_-_Roboto" fill-opacity="1" stroke-dasharray="none" stroke="none" stroke-opacity="1" fill="none">
    <title>Work II - Roboto</title>
    <g id="Work_II_-_Roboto: Layer 1">
      <title>Layer 1</title>
      <g id="Group_8">
        <g id="Graphic_15">
          <path d="M 464.0265 183.69824 L 432.3394 183.69824 C 430.13026 183.69824 428.3394 185.4891 428.3394 187.69824 L 428.3394 227.07494 C 428.3394 229.28408 430.13026 231.07494 432.3394 231.07494 L 464.0265 231.07494 C 466.23564 231.07494 468.0265 229.28408 468.0265 227.07494 L 468.0265 187.69824 C 468.0265 185.4891 466.23564 183.69824 464.0265 183.69824 Z" fill="#8393a1"/>
        </g>
        <g id="Line_14">
          <line x1="466.3344" y1="184.82324" x2="446.0844" y2="211.69824" stroke="white" stroke-linecap="round" stroke-linejoin="round" stroke-width="3.5"/>
        </g>
        <g id="Line_13">
          <line x1="446.3604" y1="212.47424" x2="464.7434" y2="227.30724" stroke="white" stroke-linecap="round" stroke-linejoin="round" stroke-width="5"/>
        </g>
        <g id="Line_12">
          <line x1="428.0845" y1="205.57324" x2="446.3604" y2="213.11734" stroke="white" stroke-linecap="round" stroke-linejoin="round" stroke-width="3.5"/>
        </g>
        <g id="Line_11">
          <line x1="447.2094" y1="183.57324" x2="441.2124" y2="201.53224" stroke="white" stroke-linecap="round" stroke-linejoin="round" stroke-width="3.5"/>
        </g>
        <g id="Line_10">
          <line x1="429.9594" y1="185.07324" x2="447.0044" y2="212.79524" stroke="white" stroke-linecap="round" stroke-linejoin="round" stroke-width="3.5"/>
        </g>
        <g id="Graphic_9">
          <path d="M 467.9109 224.3431 C 469.7691 226.07802 469.86686 228.9888 468.12926 230.8445 C 466.3917 232.7002 463.47675 232.7981 461.6186 231.06314 C 459.7604 229.3282 459.66264 226.41744 461.40024 224.56175 C 463.1378 222.70605 466.05275 222.60815 467.9109 224.3431" fill="#eb6900"/>
          <path d="M 467.9109 224.3431 C 469.7691 226.07802 469.86686 228.9888 468.12926 230.8445 C 466.3917 232.7002 463.47675 232.7981 461.6186 231.06314 C 459.7604 229.3282 459.66264 226.41744 461.40024 224.56175 C 463.1378 222.70605 466.05275 222.60815 467.9109 224.3431" stroke="white" stroke-linecap="round" stroke-linejoin="bevel" stroke-width="3"/>
        </g>
      </g>
    </g>
  </g>
</svg>
